# xmcd
#
# Track frame offsets:
#	150
#	19968
#	41228
#	60770
#	82373
#	106003
#	127271
#	147955
#	166407
#	186664
#
# Disc length: 3084 seconds
#
# Revision: 11
# Processed by: cddbd v1.5.2PL0 Copyright (c) Steve Scherf et al.
# Submitted via: Jack! The Knife 20 Magnifico
#
DISCID=920c0a0a
DTITLE=Running Wild - Resilient
DYEAR=2013
DGENRE=Metal
TTITLE0=Soldiers Of Fortune
TTITLE1=Resilient
TTITLE2=Adventure Highway
TTITLE3=The Drift
TTITLE4=Desert Rose
TTITLE5=Fireheart
TTITLE6=Run Riot
TTITLE7=Down To The Wire
TTITLE8=Crystal Gold
TTITLE9=Bloody Island
EXTD=Rolf Kasparek
EXTT0=Rolf Kasparek
EXTT1=Rolf Kasparek
EXTT2=Rolf Kasparek
EXTT3=Rolf Kasparek
EXTT4=Rolf Kasparek
EXTT5=Rolf Kasparek
EXTT6=Rolf Kasparek
EXTT7=Rolf Kasparek
EXTT8=Rolf Kasparek
EXTT9=Rolf Kasparek
PLAYORDER=
